<?xml version="1.0" standalone="no"?>
<!DOCTYPE svg PUBLIC "-//W3C//DTD SVG 20010904//EN"
 "http://www.w3.org/TR/2001/REC-SVG-20010904/DTD/svg10.dtd">
<svg version="1.0" xmlns="http://www.w3.org/2000/svg"
 width="500.000000pt" height="500.000000pt" viewBox="0 0 500.000000 500.000000"
 preserveAspectRatio="xMidYMid meet">
<metadata>
Created by potrace 1.14, written by Peter Selinger 2001-2017
</metadata>
<g transform="translate(0.000000,500.000000) scale(0.100000,-0.100000)"
fill="#000000" stroke="none">
<path d="M2115 4698 c-82 -18 -124 -66 -145 -162 -16 -73 -20 -155 -25 -576
-5 -334 -7 -430 -14 -512 -1 -16 -4 -15 -38 2 -21 11 -107 53 -192 95 -84 41
-266 134 -405 205 -333 171 -420 200 -502 165 -67 -28 -86 -55 -256 -382 -43
-84 -88 -178 -99 -210 -30 -84 -33 -186 -7 -259 52 -150 171 -245 518 -420
105 -52 190 -97 190 -100 0 -4 -227 -114 -235 -114 -3 0 -89 -39 -235 -107
-41 -20 -106 -49 -145 -65 -176 -73 -238 -139 -231 -247 4 -66 38 -135 218
-436 85 -143 167 -284 183 -314 39 -78 121 -156 180 -174 64 -18 149 -13 216
13 45 18 285 140 394 200 70 39 342 180 347 180 3 0 4 -17 3 -38 -2 -20 -6
-91 -10 -157 -12 -231 -15 -301 -20 -370 -25 -406 -25 -456 4 -513 27 -53 66
-80 141 -100 39 -10 240 -5 565 14 44 2 135 6 203 9 156 5 209 22 273 85 37
37 52 63 69 116 22 67 23 86 25 529 2 253 3 461 4 463 0 1 43 -19 94 -46 632
-336 711 -375 777 -389 94 -20 192 3 250 58 32 30 75 94 122 179 20 36 102
175 182 310 153 256 186 326 188 394 1 53 -31 117 -76 151 -19 14 -178 91
-353 171 -391 179 -426 195 -421 198 1 2 91 48 198 103 211 107 311 169 389
239 56 50 118 138 125 177 2 15 7 31 11 37 11 17 7 116 -6 178 -11 48 -101
238 -211 442 -81 152 -141 210 -217 210 -63 0 -182 -46 -370 -143 -238 -123
-669 -337 -679 -337 -4 0 -7 188 -7 418 0 355 -3 428 -17 490 -45 193 -140
296 -308 336 -50 11 -127 15 -335 14 -148 0 -288 -4 -310 -10z"/>
</g>
</svg>
